<svg id="Ebene_1" data-name="Ebene 1" xmlns="http://www.w3.org/2000/svg" viewBox="0 0 3574.44 2826.5"><title>Unbenannt-2</title><path d="M861.65-445.54c31.09,36.12,33.43,49.52,54.49,58.8,35.74,15.75,53.36-12.09,101,0,13.86,3.52,53.14,13.5,60.9,44.61,8.38,33.57-23.1,79.15-54.49,99.35-32.19,20.71-43.34,1.27-73.72,20.28-31.94,20-28.9,47.28-75.32,105.43-23.55,29.5-46.75,58.56-62.5,50.69-15.6-7.8-12-45.84-19.23-97.32,0,0-12-85.27-56.09-164.23C677.6-433.74,592.16-429.08,594-469.87c1.93-42.32,96-93,166.68-62.85C801.61-515.28,843-467.23,861.65-445.54Z" transform="translate(729.87 1280.75)" style="fill:none;stroke:#f78765;stroke-miterlimit:10;stroke-width:1.5px"/><path d="M220.2-577.13c-31.7,11.17-53.53,254,38.47,393.4,26.76,40.55,56.91,62.88,60.91,113.56,4.64,58.86-32.59,72-51.29,154.11-25.57,112.25,10.42,235.37,12.82,243.34,14.39,47.63,31.79,75.66,22.44,113.56-8,32.42-28.1,41.78-32.06,81.11-3.17,31.47,6.5,57.27,9.62,64.89,13,31.79,29.75,33.82,48.09,60.83C351,679.79,346.79,705.51,358,745c21.83,76.61,84,142.75,105.79,129.78,29.63-17.68,20.36-204-51.29-259.56-21.44-16.64-45.79-19.5-64.12-52.72-15.57-28.22-16.33-59.39-16-89.22.81-81.74,1.47-148.27,25.65-247.4C379.62,137.43,391.43,89,428.57,47.44c24-26.84,35.73-25.21,44.88-48.67C488.81-40.61,465.73-97,419-208.06c-37.75-89.64-52.09-106.45-70.53-113.56-32.63-12.59-56.34,13.55-70.53-4.06-17.52-21.74,13.36-68.21,6.41-133.84C277.63-522.65,238.06-583.42,220.2-577.13Z" transform="translate(729.87 1280.75)" style="fill:none;stroke:#f78765;stroke-miterlimit:10;stroke-width:1.5px"/><path d="M-33.06-451.4c5.94,17.65,20.19,61.19,19.23,117.61-.65,38.4-7.65,41.53-6.41,73,2.09,53.33,23.17,69.85,38.47,125.73C34.84-74.4,30-20.81,27.85,2.83,22,67.43,3.67,83.36-20.24,161c-8,26-35.06,115.78-35.26,210.89-.07,32.31,3,52.49,48.09,223.06C54.53,829.22,70.13,886.63,108,891c67.59,7.83,108.19,170,110.33,329.55.39,29.09-.2,119.86-164.83,136.85-66.29,6.84-68.74,42.9-121.82,56.78,0,0-68.58,17.93-153.88-20.28C-377.92,1324.16-513.61,701.68-398.52,47.44-341.45-277-222.77-608.86-138.85-597.41-100.12-592.12-53.33-511.6-33.06-451.4Z" transform="translate(729.87 1280.75)" style="fill:none;stroke:#f78765;stroke-miterlimit:10;stroke-width:1.5px"/><path d="M-241.44,1475c92.58,15.73,163.36-1.86,221.2-16.22,0,0,166.17-41.27,272.49-158.17,20.54-22.58,65.44-76,67.32-121.67,3.29-80-69.43-89.93-73.73-125.73-5.08-42.2,4.42-50.55,6.41-109.5,1.33-39.34-50.12-105.26-96.17-137.89,0,0-185.94-166.28-118.61-563.74,2.2-13,33.86-41.14,51.29-93.28C104,103.17,77.38,37.43,63.11,10.94c-13-24.11-17.71-51.51-16-133.84,1.34-65.74,2-98.61,9.62-158.17,2.45-19.19,24.4-203.09-28.85-369.06-15-46.66-65.29-203.5-166.7-231.17-70.63-19.27-134.67,32.68-163.49,56.78C-514.41-647.2-784.75-12.23-719.1,741c32.19,369.25,122,501.9,176.32,563.74C-422.3,1441.93-265.8,1470.9-241.44,1475Z" transform="translate(729.87 1280.75)" style="fill:none;stroke:#f78765;stroke-miterlimit:10;stroke-width:1.5px"/><path d="M-183.73,603.07c14.85,3.85,68.13,17.65,105.79,73,18.57,27.28,14.39,36.82,51.29,133.84,21.78,57.26,33,86.37,48.09,109.5,34.14,52.29,52.62,43.72,80.14,85.17,31.45,47.35,55.35,130.87,32.06,198.73-18.11,52.77-57.38,74.54-105.79,101.39-27.5,15.25-92.45,50-176.32,32.45-21.63-4.52-71.59-15.68-118.61-60.83-74.68-71.72-91.27-180.52-105.79-275.78-19.49-127.83-42.49-278.68,28.85-356.9C-284.68,578.56-193.57,600.52-183.73,603.07Z" transform="translate(729.87 1280.75)" style="fill:none;stroke:#f78765;stroke-miterlimit:10;stroke-width:1.5px"/><path d="M2114.81,1337.14c-49.6-14.75-95-8.85-243.64,20.28-31.91,6.25-50.55,10-73.73,0-28.6-12.4-33.17-32.47-80.14-77.06-35.93-34.11-53.9-51.16-73.73-52.72-33.35-2.63-35.93,27.83-96.17,48.67-23,8-30.47,6.22-73.73,20.28-49.29,16-53.72,22.88-54.5,28.39-2.57,18.12,30.79,46,64.12,56.78s43.25-3.18,105.79-4.06c45.89-.64,69.25-.62,89.76,16.22s19,31.73,48.09,56.78c15.53,13.35,32.31,27.79,54.5,28.39,17.19.47,24.37-7.73,57.7-24.33a468.08,468.08,0,0,1,57.7-24.33c72.63-23.71,127.84,128.39,198.76,113.56,54-11.3,99.75-115.86,80.14-166.28C2166.05,1352.83,2142.09,1345.25,2114.81,1337.14Z" transform="translate(729.87 1280.75)" style="fill:none;stroke:#f78765;stroke-miterlimit:10;stroke-width:1.5px"/><path d="M1563.42-581.18c-4.9,9.61-62.77,124.9-102.58,288-13.38,54.79-21.15,100.35-3.21,121.67s54.45,9.25,57.7,8.11c29-10.16,31-32.29,54.5-44.61,33.43-17.52,48.67,17.13,109,24.33,29.75,3.55,59.37-1.69,118.61-12.17,30-5.31,49.06-10.37,67.32,4.06,15.75,12.44,16.22,27.78,35.26,48.67,0,0,17.64,19.35,51.29,32.45,172.2,67,304.55-68.95,304.55-68.95,94.09-96.64,126.92-247.06,115.41-369.06C2349-785.08,2156.8-951.85,1986.58-954.3,1822-956.67,1702-805.11,1669.21-763.69,1633.35-718.41,1610-672.67,1563.42-581.18Z" transform="translate(729.87 1280.75)" style="fill:none;stroke:#f78765;stroke-miterlimit:10;stroke-width:1.5px"/><path d="M952.81,1141.4c-30,22.44-71.86,53.83-68.38,64.88,3,9.44,35.44-7.51,89.75-10.81,55-3.34,100.46,9.23,145.31,21.63,62.85,17.37,65.53,27.94,98.3,27,51-1.41,89.28-28.26,102.57-37.85,42-30.27,45.67-55,76.93-86.51,50.64-51.11,108.53-54.53,192.33-59.48,63.07-3.73,123.45-7.29,188.05,32.44,53,32.61,48.24,57.08,98.3,91.92,60.3,42,86.67,20,226.52,37.85,125.53,16,172.87,42.5,239.34,5.41,45.63-25.46,53.52-54.77,55.56-64.88,6.81-33.71-6.62-75.94-29.92-91.92-30.2-20.72-55.3,17.56-115.4,27-28.95,4.57-66.71-7.71-141-32.44-75.74-25.2-113.61-37.8-158.14-59.48-107.54-52.35-113-82.47-183.78-97.33-64.47-13.53-123.44-1.87-132.49,0-72.16,14.93-90.69,44.69-141,32.44-41.74-10.16-54.84-36.89-85.48-27C1376.87,925,1378.38,961,1346,973.78c-37.24,14.75-52.78-27.5-111.12-32.44-55.09-4.67-99,28.1-111.12,37.85-40.24,32.44-30.59,54.06-76.93,97.33C1017.34,1104.06,1009.68,1098.8,952.81,1141.4Z" transform="translate(729.87 1280.75)" style="fill:none;stroke:#f78765;stroke-miterlimit:10;stroke-width:1.5px"/><path d="M1160.73,460.88c-21.53,1.55-48.84,19.15-50.22,43.26-1.41,24.69,25,45.33,41.67,52.72,16.37,7.26,20,.25,44.88,6.76,27.2,7.11,26.35,16.39,47,20.28,22.2,4.17,25.16-6.17,63-8.11,25.13-1.28,38.42-1.73,49.15,9.46,12.22,12.75,6.21,25.05,18.16,44.61,15.45,25.26,43.16,33.61,64.11,31.09,9.58-1.15,29.1-3.51,36.33-20.28,7.64-17.72-1.84-43.74-8.55-62.18-6.47-17.77-10.39-19.59-12.82-33.79-3.34-19.46,2.09-27.3,0-41.9-3.51-24.5-24-39.08-29.92-43.26-29.16-20.75-50.07,2.47-140,16.22-55.2,8.44-71.51,3.39-80.14,0C1185.41,468.66,1177.57,459.67,1160.73,460.88Z" transform="translate(729.87 1280.75)" style="fill:none;stroke:#f78765;stroke-miterlimit:10;stroke-width:1.5px"/><path d="M1343.44,520.36c-1.5,10.38,6.15,21.92,15,25.68,7.91,3.38,19.94,1.86,24.58-9.46s-.9-25.45-8.55-31.09C1363,497.07,1345.42,506.67,1343.44,520.36Z" transform="translate(729.87 1280.75)" style="fill:none;stroke:#f78765;stroke-miterlimit:10;stroke-width:1.5px"/><path d="M870.65-809.81c-20.3-53.36-19.23-102.06-19.23-102.06.72-32.53,1.41-64.06,19.23-88.54,14.51-19.93,32.44-24.31,65.71-32.44,36.32-8.88,55.19-13.49,74.79,0,32.17,22.14,37.57,73.28,38.47,81.78.45,4.3,15.78,64.47-15.58,98.44-15.34,16.61-55.4,35-84.32,30-7.57-1.32-18.75-4.79-24,2.7-5,7.06.19,16.9-4.81,34.47-1.95,6.84-4.88,17.17-11.22,19.6-11.25,4.32-25.82-19.1-29.92-25.68A107.84,107.84,0,0,1,870.65-809.81Z" transform="translate(729.87 1280.75)" style="fill:none;stroke:#f78765;stroke-miterlimit:10;stroke-width:1.5px"/><path d="M627-697.27c-5.89-16.82,4.53-40.22,5.31-41.73,5-9.55,8.12-9,9.3-15.68,1.86-10.6-5.5-15-6.2-29.13-.42-8.45,1.56-20.07,7.53-26.33,6.16-6.46,12.52-3,28.34-2.8,26,.25,27.86-9,42.95-4.48,4.49,1.35,19.58,6.77,29.22,25.21,1.56,3,18.28,15.76,17.05,34.82-1.63,25.38-34.53,34.92-46.28,47-8.24,8.45-17,25.12-40.29,27.17C666.74-682.63,634.77-675.14,627-697.27Z" transform="translate(729.87 1280.75)" style="fill:none;stroke:#f78765;stroke-miterlimit:10;stroke-width:1.5px"/><path d="M1295.63,1172.37c-15.11,22.56-42.43,40.61-64.12,32.44-13-4.91-11.5-14.57-35.26-36.5-15.61-14.41-28.49-26.29-44.88-28.39-29.69-3.8-47.95,27.46-54.5,20.28-7.3-8,4.08-59.26,35.26-89.22s51-9,115.41-40.56c30.39-14.9,32.66-22.84,51.29-24.33,29.64-2.37,42.69,16.21,76.94,16.22,21.14,0,35.91-7.06,48.09-12.17,65.26-27.36,146.86-36.28,185.94-40.56,44.44-4.86,92.21,7.51,185.94,32.45,179.83,47.85,194.2,74.24,349.43,113.56,91.22,23.1,147.58,29.52,147.47,44.61-.11,14.68-53.58,30-99.38,28.39-40.6-1.46-74.8-16.28-93-24.33-43.25-19.17-45.35-31.45-73.73-36.5-42.3-7.53-47.54,18-83.35,12.17-47.38-7.69-49.26-54.14-112.2-81.11-8.61-3.69-31.5-7.92-76.94-16.22-34.79-6.36-70.47-12.88-96.17-16.22,0,0-136.74-17.78-288.52,44.61-18,7.39-35,16.28-48.09,36.5C1305.34,1132.16,1311.71,1148.37,1295.63,1172.37Z" transform="translate(729.87 1280.75)" style="fill:none;stroke:#f78765;stroke-miterlimit:10;stroke-width:1.5px"/><path d="M156.08-500.07c-2.12,8.84-42.35,183.27,16,263.62,6.69,9.21,18.77,22.81,32.06,48.67,7.11,13.84,26.35,51.28,28.85,89.22,3.56,54-28.79,77.48-51.29,137.89-24.58,66-18.59,129-16,178.45,3.56,68.89,5.64,109.07,28.85,146,21.24,33.8,42.26,36.35,48.09,68.95,3.28,18.38-2.54,22.35-12.82,89.22-8.43,54.84-6.77,66.81-3.21,77.06,6.78,19.49,20.63,33.25,32.06,44.61,15.89,15.79,21.24,14.91,28.85,24.33,20.19,25,13.89,70.1,12.82,89.22-4.86,87.1,56.79,152.88,83.35,186.56,16.17,20.5,24.26,30.75,38.47,40.56,44.17,30.47,75.84,8.24,99.38,40.56,12.92,17.74,8,30.78,25.65,52.72,0,0,15,18.68,38.47,28.39,43.52,18,156.59-23.27,259.67-154.12C897.2,886,905.14,850,967.14,793.68c32.78-29.78,56.69-51.52,93-64.89,81.27-30,161.91,5.12,234,36.5,32.26,14,60.28,29.78,109,40.56,30,6.64,54.87,12.14,83.35,8.11,62.66-8.86,105.39-58.56,137.85-97.34,57.22-68.36,109-130.23,102.59-219-5.57-76.85-53.14-151.23-109-170.34-53.56-18.33-70.43,29.33-166.7,40.56-47.32,5.52-87.11-3.08-166.7-20.28-106-22.9-176.32-48.67-176.32-48.67-65.35-23.94-85.62-38.33-118.61-28.39-30.94,9.32-55.27,34.66-93,97.34-93,154.64-89.21,240.23-176.32,348.79-46.28,57.68-73.4,66-93,64.89-22.22-1.23-32-14.41-99.38-81.11-77.38-76.57-89.41-83.83-105.79-117.61a286,286,0,0,1-28.85-105.45c-1.13-15.09-7.31-97.8,32.06-162.23,17.73-29,35.77-39.7,35.26-64.89-.55-27.57-22.47-31.23-25.65-56.78-5.15-41.4,48.66-62.06,86.56-141.95C527.24,39.48,545,0,550.39-49.89c4.22-38.9,1.91-93.11-38.47-190.62C471.71-337.6,447.43-348,374.07-471.68c-82.3-138.75-93.92-196.75-128.23-194.67C195.21-663.29,164.12-533.61,156.08-500.07Z" transform="translate(729.87 1280.75)" style="fill:none;stroke:#f78765;stroke-miterlimit:10;stroke-width:1.5px"/><path d="M210.58-877.25c-19.13,16.59-28.73,33.15-93,405.57-18.32,106.19-30.93,184.37,3.21,235.23,17.55,26.15,44.56,40.77,54.5,85.17,6,26.87,2.49,50-3.21,85.17C162.95-9.47,150.38,10.28,140.05,51.5c-16.21,64.7,1.17,70.23-9.62,146C114.62,308.62,72.51,329.9,82.35,404.34c2.89,21.85,12.61,44.31,32.06,89.22,13.06,30.17,26,55.34,67.32,125.73,69.5,118.52,76.51,121.93,83.35,154.12C275.41,822,263.44,833.23,277.9,891c12.9,51.58,24.41,50.55,38.47,101.39,21.16,76.52,1.44,101.75,22.44,137.89,25.35,43.62,77.14,46.52,115.41,48.67,49.41,2.77,89.91-11.31,150.67-32.45,63.44-22.06,78.52-36.35,112.2-28.39,31.35,7.41,44,25.86,70.53,20.28,24.51-5.15,41.38-26.72,60.91-56.78,68.27-105.09,60.93-147.62,109-202.78,16.06-18.43,58.62-67.26,109-60.84,37.54,4.79,41.24,35.4,89.76,48.67,50.81,13.89,59.84-16.1,105.79,0,46.79,16.39,64.39,56.94,86.56,44.61,17.14-9.53,11-36.2,32.06-52.72,18.69-14.64,41.9-8.09,70.53,0,39.61,11.19,43.93,25.62,67.32,24.33,22-1.2,37.13-15,60.91-36.5,50.25-45.54,57.27-83.65,80.14-81.11,18.77,2.08,17.95,28.15,48.09,44.61,18.49,10.1,23.59,2.91,64.12,8.11,42.39,5.44,64.1,8.22,80.14,28.39,16.32,20.51,7.89,38.09,25.65,60.83,22.83,29.24,51.11,34.38,64.12,36.5,56.62,9.25,102.65-29.73,131.44-48.67,57.89-38.1,95.16-27.52,243.64-28.39,237.06-1.38,355.59-2.07,400.72-40.56,133.21-113.58,173.14-471.35,60.91-648.9-79-125.05-298.47-118.52-737.33-105.45-56.21,1.67-79.47,7.52-102.59,20.28-30.92,17.06-43.49,36.49-73.73,40.56-23.47,3.15-39.8-5.34-70.53-20.28-87.56-42.58-131.73-63.81-150.67-60.83-53.62,8.43-94.92,69.73-102.59,81.11-30.44,45.19-39.38,92.87-64.12,93.28-8,.13-15.08-6.67-28.85-20.28-42-41.5-42.83-72.73-70.53-85.17-6.17-2.77-20.14-1.85-48.09,0-44.48,2.94-52.18,9.86-70.53,4.06-7.52-2.38-20.23-8-48.09-40.56-31.57-36.93-45.35-65-60.91-89.22-16.43-25.61-74.11-115.54-144.26-113.56-36.15,1-63.7,26.11-73.73,36.5C895-44.13,898.65-1.61,845.32,104.22c-17.09,33.92-29.68,53.79-44.88,52.72-14.32-1-29-20.47-32.06-40.56C764.48,90.62,782.3,80.6,778,55.55c-2.42-14.09-11.23-24.26-28.85-44.61C729.26-12,723.28-10.86,720.3-21.5c-6.48-23.14,18.8-39.42,28.85-77.06,10.27-38.47-2-74.32-22.44-133.84-19.33-56.36-30.66-89.39-57.7-105.45-24.64-14.63-34.31,1.46-83.35-8.11-20.52-4-53.47-10.44-76.94-32.45-30.35-28.46-39.79-78.21-44.88-154.12C450.1-737.4,491-790.92,460.63-848.86,420-926.39,287.33-943.81,210.58-877.25ZM1414.28-1242c24.22,45.73,14.14,46.71,43.45,90.34,35.13,52.31,60.37,64.21,80.67,102.73,6.2,11.76,15.87,36.06,12.71,75.47-3.91,48.74-19.32,83.81-35.77,101.15-25.64,27-37.48,21-50.13,44.39-16.35,30.29-9.26,56.32-12.62,96.88-1.63,19.69-18,55-42.22,63.08-8.36,2.78-27.65,7.55-95.46-43.26-18.79-14.08-148.48-79.3-150-216.28-.54-47.53,3.2-88.94,41.77-139.68,21.52-28.32,45.12-45.69,64.56-59.48,16.75-11.87,43.35-22.3,57.24-83.13,8.17-35.77,25-65,36.86-68.94C1382.08-1284.33,1398.8-1271.25,1414.28-1242ZM374.07-471.68C447.43-348,471.71-337.6,511.92-240.51,552.3-143,554.61-88.8,550.39-49.89,545,0,527.24,39.48,521.54,51.5,483.65,131.39,429.84,152,435,193.45c3.17,25.55,45.87-12.76,123.25,63.81,67.41,66.7,77.16,79.88,99.38,81.11,19.57,1.09,46.69-7.21,93-64.89,87.11-108.56,208.07,6.35,239-3,33-9.94,53.27,4.45,118.61,28.39,0,0,70.32,25.76,176.32,48.67,79.59,17.2,119.38,25.79,166.7,20.28,96.27-11.22,113.14-58.88,166.7-40.56,55.86,19.11,103.43,93.49,109,170.34,6.44,88.77-45.36,150.65-102.59,219-32.46,38.77-75.19,88.47-137.85,97.34-28.48,4-53.34-1.47-83.35-8.11-48.72-10.78-76.74-26.52-109-40.56-72.12-31.38-152.75-66.46-234-36.5-36.28,13.38-60.19,35.11-93,64.89C905.14,850,897.2,886,845.32,951.85,742.25,1082.7,629.18,1124,585.65,1106c-23.44-9.71-38.47-28.39-38.47-28.39-17.65-21.94-12.72-35-25.65-52.72-23.54-32.31-55.21-10.09-99.38-40.56-14.21-9.8-22.3-20.05-38.47-40.56-26.56-33.68-88.21-99.46-83.35-186.56,1.07-19.12,7.36-64.22-12.82-89.22-7.61-9.42-13-8.54-28.85-24.33-11.43-11.36-25.28-25.12-32.06-44.61-3.56-10.25-5.23-22.22,3.21-77.06,10.28-66.87,16.11-70.85,12.82-89.22-5.83-32.6-26.84-35.15-48.09-68.95-23.21-36.93-25.29-77.11-28.85-146-2.56-49.47-8.56-112.44,16-178.45C204.23-21.08,236.57-44.61,233-98.56c-2.5-37.95-21.74-75.38-28.85-89.22-13.29-25.86-25.36-39.46-32.06-48.67-58.38-80.34-18.15-254.78-16-263.62,8-33.54,39.13-163.22,89.76-166.28C280.16-668.43,291.77-610.43,374.07-471.68Z" transform="translate(729.87 1280.75)" style="fill:none;stroke:#f78765;stroke-miterlimit:10;stroke-width:1.5px"/></svg>